<?xml version="1.0" encoding="utf-8"?>
<!-- Generator: Adobe Illustrator 18.0.0, SVG Export Plug-In . SVG Version: 6.00 Build 0)  -->
<!DOCTYPE svg PUBLIC "-//W3C//DTD SVG 1.1//EN" "http://www.w3.org/Graphics/SVG/1.1/DTD/svg11.dtd">
<svg version="1.1" id="Layer_1" xmlns="http://www.w3.org/2000/svg" xmlns:xlink="http://www.w3.org/1999/xlink" x="0px" y="0px"
	 viewBox="0 0 300 300" enable-background="new 0 0 300 300" xml:space="preserve">
<g>
	<g>
		<line fill="none" x1="145.4" y1="83.8" x2="145.4" y2="201.1"/>
		<g>
			<g>
				<g>
					<path fill="none" stroke="#454EA1" d="M145.4,84.3c0,0,15.9,6.7,0,14.5"/>
					<path fill="none" stroke="#454EA1" d="M145.4,113.4c0,0-15.9-6.7,0-14.5"/>
				</g>
				<g>
					<path fill="none" stroke="#454EA1" d="M145.4,142.4c0,0-15.9-6.7,0-14.5"/>
					<path fill="none" stroke="#454EA1" d="M145.4,113.4c0,0,15.9,6.7,0,14.5"/>
				</g>
			</g>
			<g>
				<g>
					<path fill="none" stroke="#454EA1" d="M145.4,200.6c0,0-15.9-6.7,0-14.5"/>
					<path fill="none" stroke="#454EA1" d="M145.4,171.5c0,0,15.9,6.7,0,14.5"/>
				</g>
				<g>
					<path fill="none" stroke="#454EA1" d="M145.4,142.4c0,0,15.9,6.7,0,14.5"/>
					<path fill="none" stroke="#454EA1" d="M145.4,171.5c0,0-15.9-6.7,0-14.5"/>
				</g>
			</g>
		</g>
	</g>
</g>
<path fill="#444DA1" d="M179.3,129.7h3.4c-0.2,0.5-1.4,2.8-3.4,7.1c-0.9,1.8-1.5,3.1-1.8,4c-0.2,0.4-0.4,0.8-0.6,1.2l-2.4,5.1
	c0.1,0.9,0.2,1.7,0.2,2.4s0.1,1.4,0.1,2c0,1.9-0.1,3.3-0.4,4.3c-0.2,0.7-0.4,1.2-0.8,1.5c-0.3,0.3-0.7,0.4-1,0.4
	c-0.5,0-0.9-0.2-1.2-0.6s-0.5-0.9-0.5-1.5c0-1.1,0.2-2.3,0.6-3.7c0.4-1.4,1.1-2.9,1.9-4.6c-1-7-1.8-11.3-2.4-12.7s-1.4-2.2-2.5-2.2
	c-0.6,0-1.2,0.2-1.5,0.6s-0.7,1.3-0.8,2.6h-0.8c0-0.4,0-0.7,0-0.9c0-1.9,0.4-3.3,1.1-4.3c0.6-0.7,1.3-1.1,2.3-1.1
	c0.8,0,1.5,0.2,2,0.7c0.7,0.7,1.4,2.2,1.9,4.6c0.7,3.1,1.3,6.4,1.7,10l1.8-6.1C177,135.7,178,132.8,179.3,129.7z"/>
<text transform="matrix(1 0 0 1 0 269.1099)" fill="#231F20" font-family="'ArialMT'" font-size="35.1864">e</text>
<text transform="matrix(1 0 0 1 16.4194 242.1343)" fill="#231F20" font-family="'ArialMT'" font-size="21.1118">_</text>
<text transform="matrix(1 0 0 1 269.7617 269.1099)" fill="#231F20" font-family="'ArialMT'" font-size="35.1864">e</text>
<text transform="matrix(1 0 0 1 286.1816 242.1343)" fill="#231F20" font-family="'ArialMT'" font-size="21.1118">_</text>
<text transform="matrix(1 0 0 1 0 34.5342)" fill="#231F20" font-family="'ArialMT'" font-size="35.1864">e</text>
<text transform="matrix(1 0 0 1 16.4194 18.1138)" fill="#231F20" font-family="'ArialMT'" font-size="21.1118">+</text>
<text transform="matrix(1 0 0 1 269.7617 34.5342)" fill="#231F20" font-family="'ArialMT'" font-size="35.1864">e</text>
<text transform="matrix(1 0 0 1 286.1816 18.1138)" fill="#231F20" font-family="'ArialMT'" font-size="21.1118">+</text>
<line fill="none" stroke="#000000" stroke-width="2" x1="26.9" y1="24.6" x2="85.5" y2="53.9"/>
<g>
	<g>
		<line fill="none" stroke="#000000" stroke-width="2" x1="145.4" y1="83.8" x2="86.8" y2="54.5"/>
		<path d="M81.7,54.2c2.5,2.4,4,4.2,5.9,6.3l4.5-9c-1.1,0-5.2-0.4-8.6-1c-3.6-0.6-6.8-1.4-8.8-2.1C76.4,49.6,79,51.7,81.7,54.2z"/>
	</g>
</g>
<line fill="none" stroke="#000000" stroke-width="2" x1="145.3" y1="83.5" x2="202.8" y2="54.8"/>
<g>
	<g>
		<line fill="none" stroke="#000000" stroke-width="2" x1="264" y1="24.2" x2="204.2" y2="54.1"/>
		<path d="M200.9,58.1c3.4-0.6,5.7-0.7,8.6-1l-4.5-9c-0.6,0.8-3.4,3.9-5.9,6.3c-2.7,2.5-5.2,4.6-7,5.8
			C194.1,59.5,197.3,58.7,200.9,58.1z"/>
	</g>
</g>
<line fill="none" stroke="#000000" stroke-width="2" x1="86.8" y1="230.4" x2="145.4" y2="201.1"/>
<g>
	<g>
		<line fill="none" stroke="#000000" stroke-width="2" x1="28.1" y1="259.7" x2="86.8" y2="230.4"/>
		<path d="M90.1,226.5c-3.4,0.6-5.7,0.7-8.6,1l4.5,9c0.6-0.8,3.4-3.9,5.9-6.3c2.7-2.5,5.2-4.6,7-5.8
			C96.9,225.1,93.7,225.8,90.1,226.5z"/>
	</g>
</g>
<line fill="none" stroke="#000000" stroke-width="2" x1="205.3" y1="231" x2="262.7" y2="259.7"/>
<g>
	<g>
		<line fill="none" stroke="#000000" stroke-width="2" x1="145.4" y1="201.1" x2="205.3" y2="231"/>
		<path d="M210.4,231.3c-2.5-2.4-4-4.2-5.9-6.3l-4.5,9c1.1,0,5.2,0.4,8.6,1c3.6,0.6,6.8,1.4,8.8,2.1
			C215.6,235.9,213.1,233.8,210.4,231.3z"/>
	</g>
</g>
</svg>
